<svg width="26" height="26" viewBox="0 0 26 26" fill="none" xmlns="http://www.w3.org/2000/svg">
<g id="Frame">
<g id="Group">
<path id="Vector" d="M22.528 18.2102L20.0108 15.6982C19.1117 14.8011 17.5834 15.16 17.2238 16.3262C16.9541 17.1337 16.0551 17.5822 15.246 17.4028C13.4479 16.9542 11.0206 14.6217 10.5711 12.7377C10.3014 11.9303 10.8408 11.0331 11.6499 10.764C12.8186 10.4052 13.1782 8.88007 12.2792 7.98294L9.76199 5.47099C9.04278 4.843 7.96397 4.843 7.33466 5.47099L5.62653 7.17553C3.9184 8.96978 5.80633 13.7245 10.0317 17.941C14.2571 22.1575 19.0218 24.1312 20.8199 22.3369L22.528 20.6324C23.1573 19.9147 23.1573 18.8382 22.528 18.2102Z" fill="white"/>
</g>
</g>
</svg>
