<svg width="18" height="18  " viewBox="0 0 26 26" fill="none" xmlns="http://www.w3.org/2000/svg">
<g id="Frame">
<g id="Group">
<path id="Vector" d="M18.1276 5H9.87245C7.18573 5 5 7.18573 5 9.87245V18.1277C5 20.8143 7.18573 23 9.87245 23H18.1277C20.8143 23 23 20.8143 23 18.1277V9.87245C23 7.18573 20.8143 5 18.1276 5ZM14 18.9217C11.2861 18.9217 9.07827 16.7139 9.07827 14C9.07827 11.2861 11.2861 9.07827 14 9.07827C16.7139 9.07827 18.9217 11.2861 18.9217 14C18.9217 16.7139 16.7139 18.9217 14 18.9217ZM19.0394 10.239C18.2374 10.239 17.5851 9.58666 17.5851 8.78464C17.5851 7.98262 18.2374 7.33023 19.0394 7.33023C19.8415 7.33023 20.4939 7.98266 20.4939 8.78464C20.4939 9.58663 19.8414 10.239 19.0394 10.239Z" fill="white"/>
<path id="Vector_2" d="M13.9993 10.1335C11.8674 10.1335 10.1328 11.868 10.1328 14C10.1328 16.1319 11.8674 17.8665 13.9993 17.8665C16.1314 17.8665 17.8658 16.1319 17.8658 14C17.8658 11.868 16.1314 10.1335 13.9993 10.1335ZM19.0388 8.38554C18.8187 8.38554 18.6397 8.56467 18.6397 8.78464C18.6397 9.00465 18.8187 9.18373 19.0388 9.18373C19.2589 9.18373 19.438 9.00479 19.438 8.78464C19.438 8.56452 19.2589 8.38554 19.0388 8.38554Z" fill="white"/>
</g>
</g>
</svg>
