<svg width="175" height="60" viewBox="0 0 175 60" fill="none" xmlns="http://www.w3.org/2000/svg">
<g id="logo-2 1" clip-path="url(#clip0_692_10044)">
<g id="Clip path group">
<mask id="mask0_692_10044" style="mask-type:luminance" maskUnits="userSpaceOnUse" x="0" y="0" width="175" height="60">
<g id="clip0_1636_19">
<path id="Vector" d="M174.194 0H0V59.6775H174.194V0Z" fill="white"/>
</g>
</mask>
<g mask="url(#mask0_692_10044)">
<g id="Group">
<path id="Vector_2" d="M156.11 4.13926C156.068 3.50926 155.804 2.91487 155.368 2.46076C154.931 2.00664 154.349 1.72195 153.725 1.65682C153.099 1.59169 152.471 1.75031 151.952 2.10472C151.432 2.45914 151.053 2.98663 150.882 3.59427C150.711 4.20191 150.758 4.85073 151.017 5.42643C151.275 6.00214 151.727 6.46781 152.293 6.74141C152.859 7.01501 153.503 7.07898 154.112 6.92208C154.72 6.76518 155.255 6.39745 155.619 5.88369L155.767 5.67572L155.218 5.30945L155.079 5.50811C154.898 5.77142 154.656 5.98609 154.373 6.1333C154.09 6.2805 153.777 6.35572 153.458 6.35238C152.941 6.35363 152.443 6.15363 152.07 5.79428C151.696 5.43493 151.476 4.94415 151.454 4.42482H156.123L156.11 4.13926ZM151.478 3.77919C151.577 3.32624 151.828 2.92109 152.188 2.63174C152.549 2.34237 152.997 2.18639 153.458 2.18995C153.917 2.18556 154.363 2.34167 154.72 2.63159C155.077 2.92151 155.323 3.32718 155.416 3.77919H151.478Z" fill="#96B394"/>
<path id="Vector_3" d="M159.163 1.41705C159.055 1.85736 159.014 2.3116 159.042 2.76418V2.84178H157.218V2.71762C157.196 2.32743 157.233 1.93625 157.325 1.55674C157.517 0.935944 157.943 0.644172 158.66 0.644172H158.906V0.00475281H158.66C158.217 -0.0264983 157.778 0.0975774 157.417 0.35576C157.056 0.613942 156.796 0.990193 156.681 1.42016C156.575 1.86099 156.536 2.31489 156.563 2.76729V6.94213H157.218V3.48741H159.042V6.94213H159.7V3.48741H161.386V2.84489H159.7V2.72073C159.679 2.33069 159.714 1.93958 159.805 1.55984C159.996 0.939048 160.423 0.647274 161.139 0.647274H161.386V0.00475281H161.139C160.698 -0.0265173 160.259 0.097229 159.899 0.354836C159.538 0.612444 159.278 0.987919 159.163 1.41705Z" fill="#96B394"/>
<path id="Vector_4" d="M166.739 4.13925C166.698 3.51122 166.438 2.91796 166.004 2.46377C165.571 2.00958 164.992 1.72355 164.369 1.65595C163.747 1.58836 163.12 1.74354 162.601 2.0942C162.081 2.44486 161.701 2.96856 161.527 3.57323C161.352 4.17789 161.397 4.8248 161.65 5.40023C161.904 5.97566 162.351 6.44276 162.913 6.71941C163.476 6.99605 164.117 7.06454 164.725 6.91283C165.333 6.76111 165.868 6.3989 166.236 5.88989L166.381 5.68192L165.813 5.30945L165.674 5.5081C165.492 5.76988 165.249 5.98305 164.967 6.1291C164.684 6.27515 164.371 6.34967 164.053 6.34618C163.537 6.3474 163.039 6.14728 162.666 5.78786C162.293 5.42843 162.073 4.93766 162.052 4.41861H166.739V4.13925ZM162.107 3.77919C162.206 3.33041 162.454 2.92869 162.81 2.63992C163.165 2.35115 163.608 2.19249 164.065 2.18996C164.525 2.18543 164.972 2.34144 165.329 2.63132C165.687 2.92119 165.933 3.32694 166.026 3.77919H162.107Z" fill="#96B394"/>
<path id="Vector_5" d="M169.572 2.18994C169.882 2.18739 170.188 2.25829 170.466 2.3969C170.742 2.5355 170.983 2.7379 171.168 2.98766L171.31 3.17391L171.857 2.80764L171.7 2.59967C171.454 2.26672 171.132 1.99754 170.763 1.81452C170.393 1.6315 169.985 1.53993 169.572 1.54742C169.218 1.54182 168.866 1.60852 168.538 1.7435C168.209 1.87848 167.912 2.07894 167.662 2.33278C167.413 2.58662 167.218 2.88857 167.088 3.2204C166.959 3.55222 166.898 3.90703 166.907 4.2634C166.902 4.618 166.968 4.97004 167.1 5.29901C167.231 5.62797 167.427 5.92729 167.676 6.17949C167.923 6.4317 168.219 6.63176 168.545 6.76803C168.87 6.90429 169.219 6.97402 169.572 6.97316C169.98 6.97703 170.381 6.88532 170.747 6.70534C171.113 6.52535 171.431 6.26208 171.678 5.93644L171.829 5.73158L171.302 5.35289L171.157 5.54534C170.974 5.79495 170.735 5.99797 170.46 6.13813C170.185 6.27828 169.881 6.35166 169.572 6.35237C169.038 6.3316 168.532 6.10357 168.161 5.71613C167.791 5.32867 167.584 4.81192 167.584 4.27426C167.584 3.73661 167.791 3.21985 168.161 2.8324C168.532 2.44494 169.038 2.21693 169.572 2.19616V2.18994Z" fill="#96B394"/>
<path id="Vector_6" d="M174.456 2.23341V1.59399H172.77V0.00476074H172.112V4.08959C172.088 4.58013 172.129 5.07175 172.232 5.55155C172.424 6.17235 172.921 6.94214 174.208 6.94214H174.456V6.29962H174.208C173.915 6.32661 173.622 6.25034 173.379 6.08387C173.135 5.91739 172.957 5.67106 172.875 5.38705C172.776 4.95056 172.741 4.50208 172.77 4.05544V2.23341H174.456Z" fill="#96B394"/>
<path id="Vector_7" d="M54.4623 55.0847H53.8602V56.2642H53.1562V56.8664H53.8602V59.1229H54.4623V56.8664H55.1694V56.2642H54.4623V55.0847Z" fill="#96B394"/>
<path id="Vector_8" d="M56.5049 56.6366C56.2541 56.9323 56.1258 57.3134 56.1467 57.7013V59.1199H56.7458V57.692C56.7307 57.4603 56.7998 57.2308 56.9403 57.0464C57.0134 56.9728 57.1014 56.9162 57.1985 56.8802C57.2955 56.8443 57.3992 56.8301 57.5023 56.8384H57.635V56.2176H57.5023C57.3158 56.2113 57.1302 56.2454 56.9581 56.3178C56.7859 56.39 56.6314 56.4988 56.5049 56.6366Z" fill="#96B394"/>
<path id="Vector_9" d="M59.8603 56.2301C59.5153 56.2203 59.1773 56.3298 58.9031 56.5404L58.8012 56.6211L59.1686 57.0961L59.2705 57.0154C59.4434 56.8953 59.6505 56.8354 59.8603 56.8447C60.0628 56.8331 60.2634 56.8887 60.4315 57.0029C60.5339 57.0812 60.6095 57.1898 60.6476 57.3134H59.6935C59.5378 57.3134 59.3821 57.3217 59.2273 57.3381C59.0838 57.3526 58.9443 57.3948 58.8167 57.4623C58.6848 57.532 58.5771 57.6402 58.5079 57.7727C58.4279 57.9366 58.3908 58.1181 58.3998 58.3004C58.4031 58.3847 58.4177 58.4683 58.443 58.5487C58.4851 58.6703 58.5599 58.7777 58.6591 58.8591C58.7916 58.9633 58.9425 59.0413 59.1038 59.0888C59.5958 59.2089 60.1093 59.2089 60.6013 59.0888C60.762 59.042 60.912 58.9639 61.0429 58.8591C61.144 58.7796 61.2193 58.6715 61.2589 58.5487C61.2869 58.4687 61.3025 58.385 61.3053 58.3004V57.7199C61.3229 57.5236 61.2973 57.3259 61.2304 57.1407C61.1635 56.9555 61.0569 56.7873 60.9181 56.648C60.7793 56.5089 60.6118 56.402 60.4274 56.3352C60.243 56.2683 60.0462 56.243 59.851 56.2611L59.8603 56.2301ZM60.7125 57.8875V58.2694C60.7132 58.2868 60.7097 58.3041 60.7021 58.3198C60.6946 58.3356 60.6832 58.3491 60.6692 58.3594C60.617 58.4047 60.5561 58.4385 60.4902 58.4587C60.3962 58.4916 60.2989 58.5135 60.1999 58.5239C59.9753 58.5518 59.7482 58.5518 59.5237 58.5239C59.4252 58.5129 59.3279 58.4921 59.2335 58.4618C59.1673 58.4386 59.1056 58.404 59.0513 58.3594C59.0382 58.3484 59.0277 58.3346 59.0208 58.319C59.0139 58.3035 59.0105 58.2864 59.0112 58.2694C59.0077 58.1909 59.016 58.1124 59.0359 58.0365C59.0414 58.02 59.0503 58.0049 59.062 57.992C59.0736 57.9793 59.0879 57.969 59.1038 57.962C59.1831 57.9285 59.2678 57.9096 59.3539 57.9062C59.4804 57.9062 59.6627 57.8875 59.8603 57.8875H60.7125Z" fill="#96B394"/>
<path id="Vector_10" d="M63.7131 56.2332C63.5338 56.2241 63.3547 56.2549 63.1886 56.3236C63.0227 56.3923 62.8738 56.4972 62.7529 56.6305C62.5156 56.9312 62.396 57.3087 62.4163 57.692V59.1198H63.0153V57.692C62.9992 57.461 63.0636 57.2317 63.1974 57.0432C63.3371 56.9114 63.5215 56.8381 63.7131 56.8381C63.9047 56.8381 64.089 56.9114 64.2288 57.0432C64.3626 57.2317 64.427 57.461 64.4109 57.692V59.1198H65.013V57.692C65.0336 57.3076 64.9115 56.9293 64.6703 56.6305C64.5498 56.4973 64.4014 56.3927 64.2359 56.324C64.0704 56.2553 63.8919 56.2243 63.7131 56.2332Z" fill="#96B394"/>
<path id="Vector_11" d="M67.7947 56.4566C67.5634 56.3106 67.296 56.2332 67.0228 56.2332C66.7497 56.2332 66.4822 56.3106 66.2509 56.4566C66.1507 56.532 66.0703 56.6307 66.0165 56.7442C65.9627 56.8578 65.9372 56.9828 65.9421 57.1085C65.9371 57.252 65.9724 57.394 66.044 57.5182C66.1104 57.6207 66.1991 57.7066 66.3034 57.7696C66.407 57.8304 66.5181 57.8773 66.6337 57.9093C66.7449 57.9372 66.8561 57.9651 66.9641 57.9869C67.0722 58.0086 67.2019 58.0427 67.2729 58.0645C67.3303 58.0796 67.3854 58.1026 67.4366 58.1327C67.4736 58.1545 67.4828 58.17 67.4859 58.1793C67.4934 58.2089 67.4934 58.2398 67.4859 58.2694C67.489 58.315 67.4782 58.3603 67.4551 58.3997C67.4269 58.4341 67.3924 58.4626 67.3532 58.4835C67.3038 58.5088 67.2506 58.5255 67.1957 58.5332C67.0659 58.5549 66.9334 58.5549 66.8036 58.5332C66.7477 58.5255 66.6935 58.5088 66.643 58.4835C66.6039 58.4652 66.5707 58.4361 66.5473 58.3997C66.5242 58.3603 66.5134 58.315 66.5164 58.2694V58.1389H65.8989V58.2694C65.8945 58.3949 65.9202 58.5197 65.974 58.6332C66.0277 58.7467 66.1079 58.8455 66.2076 58.9212C66.4389 59.0672 66.7065 59.1447 66.9796 59.1447C67.2527 59.1447 67.5203 59.0672 67.7515 58.9212C67.8514 58.8457 67.9318 58.7469 67.9856 58.6333C68.0393 58.5198 68.0649 58.395 68.0603 58.2694C68.0649 58.1279 68.0296 57.988 67.9584 57.8658C67.8938 57.761 67.8048 57.6736 67.699 57.6113C67.5959 57.5503 67.4847 57.5043 67.3686 57.4748L67.0414 57.4002C66.9367 57.3791 66.8336 57.3511 66.7325 57.3164C66.6729 57.2992 66.6158 57.2743 66.5627 57.2419C66.5411 57.2419 66.5257 57.214 66.5226 57.2016C66.5172 57.1708 66.5172 57.1393 66.5226 57.1085C66.5192 57.0628 66.53 57.0173 66.5535 56.9781C66.5769 56.9424 66.6102 56.9143 66.6492 56.8974C66.6994 56.8717 66.7538 56.8549 66.8098 56.8478C66.9395 56.826 67.072 56.826 67.2019 56.8478C67.2577 56.8553 67.312 56.8722 67.3624 56.8974C67.4012 56.9163 67.435 56.9439 67.4613 56.9781C67.4844 57.0174 67.4951 57.0629 67.4921 57.1085V57.2388H68.0881V57.1085C68.0945 56.9841 68.0712 56.8602 68.0202 56.7467C67.9692 56.6333 67.8919 56.5338 67.7947 56.4566Z" fill="#96B394"/>
<path id="Vector_12" d="M69.6825 56.6522C69.6666 56.5367 69.6775 56.4192 69.7145 56.3087C69.7513 56.1982 69.8132 56.0979 69.8952 56.0155C69.9771 55.9331 70.077 55.8709 70.1869 55.8339C70.2968 55.7967 70.4137 55.7858 70.5285 55.8017H70.6613V55.1964H70.5285C70.3342 55.1793 70.1385 55.2052 69.9553 55.2724C69.772 55.3396 69.6056 55.4463 69.4678 55.5851C69.33 55.7238 69.2242 55.8914 69.1578 56.0757C69.0914 56.2601 69.066 56.4569 69.0835 56.6522V59.1353H69.6825V57.6144H70.5254L70.7077 57.0123H69.6825V56.6522Z" fill="#96B394"/>
<path id="Vector_13" d="M72.8691 56.2301C72.5662 56.2575 72.2816 56.388 72.0624 56.5999C71.8432 56.812 71.7024 57.0927 71.6634 57.396C71.6243 57.6992 71.6893 58.0067 71.8475 58.2679C72.0057 58.529 72.2479 58.7281 72.5338 58.8322C72.8198 58.9364 73.1326 58.9394 73.4205 58.8408C73.7085 58.7422 73.9543 58.5478 74.1175 58.2898C74.2807 58.0318 74.3515 57.7255 74.3182 57.4215C74.285 57.1177 74.1496 56.8342 73.9344 56.618C73.792 56.4847 73.6242 56.3816 73.4412 56.3149C73.2581 56.2483 73.0636 56.2194 72.8691 56.2301ZM72.8691 58.5456C72.702 58.5213 72.548 58.441 72.4318 58.3176C72.3157 58.1943 72.2444 58.0352 72.2294 57.8661C72.2144 57.697 72.2566 57.5278 72.3492 57.3857C72.4417 57.2438 72.5792 57.1372 72.7395 57.0836C72.8997 57.0299 73.0732 57.0321 73.232 57.0899C73.3909 57.1477 73.5257 57.2576 73.6146 57.402C73.7035 57.5463 73.7415 57.7166 73.7222 57.8853C73.7029 58.054 73.6276 58.2111 73.5083 58.3314C73.4211 58.4077 73.3197 58.4659 73.2101 58.5027C73.1003 58.5394 72.9845 58.554 72.8691 58.5456Z" fill="#96B394"/>
<path id="Vector_14" d="M75.6729 56.6366C75.4221 56.9323 75.2939 57.3134 75.3147 57.7013V59.1199H75.9137V57.692C75.896 57.46 75.9654 57.2296 76.1082 57.0464C76.1813 56.9728 76.2695 56.9162 76.3664 56.8802C76.4635 56.8443 76.5671 56.8301 76.6702 56.8384H76.803V56.2176H76.6702C76.4837 56.2113 76.2981 56.2454 76.126 56.3178C75.9539 56.39 75.7993 56.4988 75.6729 56.6366Z" fill="#96B394"/>
<path id="Vector_15" d="M80.6732 56.2332C80.4675 56.2296 80.2648 56.2821 80.0865 56.3852C79.9782 56.4522 79.883 56.5384 79.8055 56.6398C79.7291 56.5385 79.635 56.4523 79.5277 56.3852C79.3505 56.282 79.1487 56.2295 78.944 56.2332C78.7778 56.2258 78.6124 56.2586 78.4614 56.3288C78.3104 56.399 78.1784 56.5046 78.0764 56.6366C77.8581 56.9434 77.7492 57.3153 77.7676 57.692V59.1198H78.3667V57.692C78.367 57.5954 78.3743 57.499 78.3882 57.4034C78.4025 57.3053 78.4317 57.21 78.4748 57.1209C78.5147 57.0385 78.574 56.9671 78.6476 56.9129C78.735 56.8639 78.8333 56.8383 78.9333 56.8383C79.0332 56.8383 79.1316 56.8639 79.2189 56.9129C79.2914 56.966 79.3498 57.0364 79.3887 57.1178C79.4314 57.2082 79.4605 57.3044 79.4751 57.4034C79.4876 57.4991 79.4948 57.5954 79.4968 57.692V59.1198H80.0957V57.692C80.0974 57.5954 80.1056 57.4989 80.1205 57.4034C80.1333 57.3049 80.1625 57.2094 80.2069 57.1209C80.2458 57.0377 80.3053 56.9661 80.3799 56.9129C80.4671 56.8639 80.5655 56.8383 80.6654 56.8383C80.7654 56.8383 80.8637 56.8639 80.951 56.9129C81.0238 56.9672 81.082 57.0386 81.1209 57.1209C81.1663 57.2093 81.1966 57.3047 81.2105 57.4034C81.2229 57.4991 81.2301 57.5954 81.232 57.692V59.1198H81.828V57.692C81.8449 57.3155 81.7362 56.9441 81.5192 56.6366C81.4194 56.5076 81.2908 56.4039 81.1439 56.3338C80.997 56.2637 80.8358 56.2293 80.6732 56.2332Z" fill="#96B394"/>
<path id="Vector_16" d="M83.6576 56.2828H83.0586V59.126H83.6576V56.2828Z" fill="#96B394"/>
<path id="Vector_17" d="M83.6576 55.0846H83.0586V55.8048H83.6576V55.0846Z" fill="#96B394"/>
<path id="Vector_18" d="M86.1844 56.2332C86.004 56.2234 85.8237 56.2546 85.657 56.3245C85.4902 56.3944 85.3412 56.501 85.221 56.6366C84.9809 56.9359 84.8599 57.3142 84.8813 57.6982V59.1198H85.4804V57.692C85.4643 57.461 85.5288 57.2317 85.6626 57.0433C85.8022 56.9114 85.9866 56.8381 86.1782 56.8381C86.3698 56.8381 86.5542 56.9114 86.6939 57.0433C86.8278 57.2317 86.8921 57.461 86.8761 57.692V59.1198H87.4782V57.692C87.4988 57.3076 87.3767 56.9294 87.1354 56.6304C87.0156 56.4981 86.8683 56.394 86.7039 56.3253C86.5396 56.2567 86.3622 56.2252 86.1844 56.2332Z" fill="#96B394"/>
<path id="Vector_19" d="M89.8538 56.2301C89.6552 56.217 89.4561 56.2451 89.2688 56.3125C89.0815 56.38 88.9099 56.4853 88.7647 56.622C88.6195 56.7587 88.5038 56.924 88.4246 57.1075C88.3455 57.291 88.3047 57.4889 88.3047 57.6889C88.3047 57.889 88.3455 58.0868 88.4246 58.2704C88.5038 58.4538 88.6195 58.619 88.7647 58.7559C88.9099 58.8926 89.0815 58.9979 89.2688 59.0654C89.4561 59.1327 89.6552 59.1608 89.8538 59.1478C90.1441 59.1574 90.4314 59.0865 90.6844 58.9429C90.6675 59.1046 90.598 59.2564 90.4868 59.3744C90.4003 59.4499 90.3 59.5075 90.1913 59.5437C90.0826 59.58 89.9678 59.5941 89.8538 59.5854H89.721V60.1907H89.8538C90.0476 60.2013 90.2417 60.1724 90.4242 60.1057C90.6068 60.039 90.774 59.9359 90.9159 59.8027C91.0498 59.6608 91.1533 59.4929 91.2202 59.3092C91.2872 59.1256 91.316 58.9302 91.305 58.735V57.6889C91.3225 57.493 91.2969 57.2955 91.2303 57.1104C91.1635 56.9255 91.0571 56.7575 90.9188 56.6183C90.7803 56.4792 90.6131 56.3722 90.4292 56.3052C90.2451 56.2381 90.0487 56.2125 89.8538 56.2301ZM90.7059 57.6858V57.81C90.7056 57.913 90.6843 58.0149 90.6434 58.1093C90.6025 58.2038 90.5429 58.2888 90.4682 58.3594C90.2927 58.4969 90.0724 58.5634 89.8507 58.5456C89.7156 58.5344 89.585 58.491 89.4699 58.4191C89.3548 58.3472 89.2582 58.2488 89.1883 58.132C89.1185 58.0153 89.0772 57.8835 89.0679 57.7475C89.0587 57.6115 89.0817 57.4754 89.1351 57.35C89.1885 57.2248 89.2708 57.1141 89.3751 57.0271C89.4794 56.9401 89.6028 56.8792 89.7351 56.8495C89.8674 56.8199 90.0048 56.8223 90.136 56.8565C90.2673 56.8907 90.3885 56.9558 90.4898 57.0464C90.6448 57.2218 90.7246 57.4515 90.7121 57.6858H90.7059Z" fill="#96B394"/>
<path id="Vector_20" d="M95.8728 56.6522C95.8563 56.5366 95.8667 56.4188 95.9034 56.3081C95.9401 56.1973 96.0019 56.0966 96.0841 56.0141C96.1661 55.9315 96.2663 55.8693 96.3765 55.8324C96.4866 55.7956 96.6039 55.7851 96.7188 55.8016H96.8513V55.1964H96.7188C96.5244 55.1794 96.3286 55.2053 96.1452 55.2724C95.9618 55.3396 95.7952 55.4462 95.6572 55.585C95.5192 55.7237 95.4131 55.8912 95.3463 56.0755C95.2795 56.2599 95.2537 56.4567 95.2707 56.6522V59.1353H95.8728V57.6144H96.7157L96.8948 57.0122H95.8728V56.6522Z" fill="#96B394"/>
<path id="Vector_21" d="M99.5477 57.6889C99.5477 57.7866 99.54 57.884 99.5265 57.9807C99.5119 58.0782 99.4819 58.1725 99.4365 58.26C99.3919 58.3432 99.329 58.4145 99.2516 58.468C99.1558 58.5175 99.0503 58.5434 98.9429 58.5434C98.8355 58.5434 98.729 58.5175 98.6342 58.468C98.5548 58.4172 98.491 58.3465 98.4484 58.2632C98.4039 58.1756 98.3729 58.0813 98.3594 57.9838C98.3448 57.8872 98.3371 57.7897 98.3371 57.692V56.2859H97.7255V57.692C97.7032 58.0711 97.8126 58.4464 98.0352 58.7535C98.1484 58.8786 98.2877 58.9785 98.4416 59.0468C98.5965 59.1151 98.7629 59.1503 98.9313 59.1503C99.1006 59.1503 99.2671 59.1151 99.4219 59.0468C99.5758 58.9785 99.7152 58.8786 99.8284 58.7535C100.052 58.447 100.161 58.0713 100.137 57.692V56.2859H99.5197L99.5477 57.6889Z" fill="#96B394"/>
<path id="Vector_22" d="M101.524 56.6367C101.274 56.9322 101.145 57.3134 101.166 57.7013V59.1198H101.765V57.692C101.748 57.46 101.817 57.2296 101.96 57.0464C102.032 56.9729 102.121 56.9162 102.218 56.8803C102.315 56.8444 102.419 56.8301 102.522 56.8385H102.655V56.2177H102.51C102.325 56.213 102.142 56.2481 101.972 56.3203C101.802 56.3925 101.649 56.5004 101.524 56.6367Z" fill="#96B394"/>
<path id="Vector_23" d="M104.932 56.2332C104.753 56.2238 104.574 56.2546 104.408 56.3233C104.242 56.3921 104.093 56.497 103.972 56.6304C103.733 56.9302 103.613 57.3085 103.635 57.692V59.1198H104.234V57.692C104.219 57.461 104.283 57.2317 104.416 57.0432C104.557 56.9114 104.741 56.8381 104.932 56.8381C105.124 56.8381 105.309 56.9114 105.448 57.0432C105.582 57.2317 105.646 57.461 105.63 57.692V59.1198H106.22V57.692C106.242 57.308 106.121 56.9297 105.881 56.6304C105.761 56.4986 105.614 56.3947 105.45 56.326C105.286 56.2573 105.109 56.2257 104.932 56.2332Z" fill="#96B394"/>
<path id="Vector_24" d="M108.048 56.2828H107.449V59.126H108.048V56.2828Z" fill="#96B394"/>
<path id="Vector_25" d="M108.048 55.0846H107.449V55.8048H108.048V55.0846Z" fill="#96B394"/>
<path id="Vector_26" d="M110.392 55.0846H109.79V56.2642H109.09V56.8664H109.79V59.1229H110.392V56.8664H111.1V56.2642H110.392V55.0846Z" fill="#96B394"/>
<path id="Vector_27" d="M113.819 57.6889C113.819 57.7866 113.813 57.884 113.798 57.9807C113.784 58.0782 113.754 58.1725 113.708 58.26C113.664 58.3432 113.601 58.4145 113.523 58.468C113.427 58.5175 113.322 58.5434 113.214 58.5434C113.107 58.5434 113.001 58.5175 112.906 58.468C112.827 58.4172 112.764 58.3465 112.72 58.2632C112.675 58.1756 112.645 58.0813 112.631 57.9838C112.616 57.8872 112.61 57.7897 112.609 57.692V56.2859H112.007V57.692C111.984 58.0711 112.094 58.4464 112.315 58.7535C112.43 58.8786 112.568 58.9785 112.723 59.0468C112.877 59.1151 113.044 59.1503 113.213 59.1503C113.382 59.1503 113.548 59.1151 113.703 59.0468C113.857 58.9785 113.995 58.8786 114.11 58.7535C114.333 58.447 114.443 58.0713 114.418 57.692V56.2859H113.816L113.819 57.6889Z" fill="#96B394"/>
<path id="Vector_28" d="M115.79 56.6366C115.539 56.9323 115.411 57.3134 115.432 57.7013V59.1199H116.031V57.692C116.013 57.46 116.082 57.2296 116.226 57.0464C116.298 56.9728 116.386 56.9162 116.483 56.8802C116.581 56.8443 116.684 56.8301 116.787 56.8384H116.916V56.2176H116.787C116.601 56.2113 116.415 56.2454 116.243 56.3178C116.071 56.39 115.916 56.4988 115.79 56.6366Z" fill="#96B394"/>
<path id="Vector_29" d="M120.236 56.618C120.032 56.3972 119.766 56.2448 119.474 56.1816C119.181 56.1184 118.877 56.1475 118.601 56.2649C118.325 56.3824 118.092 56.5825 117.934 56.8379C117.775 57.0933 117.7 57.3915 117.716 57.692C117.699 57.8875 117.725 58.0844 117.792 58.2687C117.858 58.4531 117.965 58.6205 118.102 58.7593C118.241 58.8979 118.407 59.0047 118.591 59.0717C118.774 59.1389 118.969 59.1648 119.164 59.1478C119.355 59.1571 119.544 59.1287 119.723 59.0644C119.902 58.9999 120.067 58.9006 120.208 58.7722L120.304 58.679L119.884 58.2476L119.791 58.3407C119.619 58.4864 119.398 58.5597 119.174 58.5456C118.961 58.5595 118.749 58.4968 118.577 58.3687C118.467 58.2717 118.391 58.1409 118.362 57.9962H120.328C120.407 57.9951 120.482 57.9641 120.538 57.9093C120.567 57.8805 120.59 57.8463 120.607 57.8085C120.622 57.7706 120.631 57.73 120.631 57.6889C120.64 57.4929 120.61 57.2971 120.542 57.113C120.474 56.9291 120.37 56.7608 120.236 56.618ZM118.349 57.391C118.378 57.2443 118.454 57.1112 118.565 57.0123C118.739 56.8836 118.952 56.8199 119.168 56.8322C119.383 56.8199 119.596 56.8836 119.77 57.0123C119.883 57.1105 119.961 57.2436 119.991 57.391H118.349Z" fill="#96B394"/>
<path id="Vector_30" d="M56.9431 8.50652L41.2822 45.1923L29.9781 18.7682H26.0352L34.4028 38.4629H34.3751L39.5716 50.6553C39.7046 51.0016 39.9398 51.2987 40.2455 51.5068C40.5513 51.7149 40.913 51.8239 41.2822 51.8193C41.6623 51.8382 42.0377 51.7304 42.3504 51.5125C42.6631 51.2948 42.8954 50.9792 43.0114 50.6149L61.0219 8.50652H56.9431Z" fill="#AF4B85"/>
<path id="Vector_31" d="M19.6594 45.1892L4.32279 9.11801L4.06342 8.49722H0L17.9457 50.6833C18.0779 51.0301 18.3129 51.3277 18.6188 51.5358C18.9248 51.7441 19.2869 51.8528 19.6564 51.8473C20.0149 51.8471 20.3667 51.748 20.6732 51.5608C20.9797 51.3736 21.2293 51.1055 21.3947 50.7856L21.4256 50.7267L29.7069 31.3021L29.7377 31.2338L27.6844 26.4723L19.6594 45.1892Z" fill="#AF4B85"/>
<path id="Vector_32" d="M169.848 8.32962L154.301 44.7454L143.111 18.6038H138.789L147.193 38.3885H147.166L152.415 50.7391C152.56 51.1181 152.816 51.4432 153.151 51.6707C153.486 51.8983 153.882 52.0173 154.286 52.0118C154.7 52.0294 155.109 51.9107 155.45 51.6737C155.79 51.4368 156.046 51.0946 156.176 50.6987L174.306 8.32962H169.848Z" fill="#AF4B85"/>
<path id="Vector_33" d="M132.677 45.1892L117.353 9.11801L117.094 8.49722H113.008L130.954 50.674C131.086 51.0207 131.321 51.3184 131.627 51.5266C131.933 51.7347 132.295 51.8434 132.665 51.838C133.023 51.8377 133.375 51.7387 133.682 51.5515C133.987 51.3643 134.237 51.0962 134.403 50.7764L134.434 50.7174L142.597 31.569L142.628 31.4976L140.575 26.7392L132.677 45.1892Z" fill="#AF4B85"/>
<path id="Vector_34" d="M106.385 13.0694C104.808 9.32904 102.191 6.12513 98.8493 3.84132C95.5067 1.5575 91.5804 0.290601 87.5403 0.192341C83.5002 0.0940814 79.5175 1.16863 76.0693 3.28728C72.621 5.40595 69.8534 8.47891 68.0978 12.1382L67.7891 12.8055L70.4012 13.147L70.5741 12.8055C71.7057 10.5927 73.2677 8.63088 75.1676 7.03625C77.0675 5.44161 79.2665 4.24667 81.6343 3.52223C84.002 2.79781 86.4904 2.55864 88.9518 2.81893C91.4133 3.07922 93.7977 3.83365 95.9637 5.0375C98.1293 6.24136 100.033 7.87013 101.562 9.82724C103.09 11.7844 104.212 14.03 104.86 16.4311C105.509 18.8322 105.672 21.3397 105.339 23.8051C105.005 26.2705 104.184 28.6436 102.921 30.7837L102.748 31.0755L104.292 33.3817L104.733 32.6927C105.042 32.224 105.317 31.7397 105.573 31.2555C107.048 28.4769 107.888 25.4025 108.03 22.2564C108.174 19.1103 107.617 15.9717 106.401 13.0694H106.385Z" fill="#AF4B85"/>
<path id="Vector_35" d="M76.7573 41.7749C76.3188 41.5575 75.8876 41.3248 75.4636 41.0765L70.832 51.8907H72.4252L76.7573 41.7749Z" fill="#96B394"/>
<path id="Vector_36" d="M96.5366 51.8907H98.1272L94.3134 42.9606C93.8502 43.1189 93.3871 43.271 92.9023 43.3889L96.5366 51.8907Z" fill="#96B394"/>
<path id="Vector_37" d="M97.4595 36.5384L97.2746 36.6626C94.5041 38.5303 91.2808 39.6059 87.9493 39.7746C84.6178 39.9433 81.3033 39.1987 78.3602 37.6204C75.4171 36.0421 72.9559 33.6894 71.2399 30.814C69.5238 27.9384 68.6175 24.6482 68.6175 21.2949C68.6175 21.0714 68.6175 20.851 68.6175 20.6275V20.4257L65.9466 20.0626V20.3078C65.9312 20.6368 65.9219 20.9658 65.9219 21.2949C65.9169 24.0793 66.46 26.8372 67.5198 29.4097C68.5797 31.9822 70.1354 34.3184 72.0974 36.2839C74.0377 38.2532 76.3549 39.8068 78.9092 40.8508C81.4635 41.8948 84.2016 42.4077 86.9585 42.3584C88.7578 42.3586 90.5502 42.1334 92.294 41.6879C92.7695 41.5637 93.2512 41.421 93.7236 41.2658C95.4853 40.677 97.1633 39.8611 98.7165 38.8385L98.9053 38.7143L97.4595 36.5384Z" fill="#96B394"/>
<path id="Vector_38" d="M94.363 31.7459L94.1037 31.9228C92.1931 33.2078 89.9722 33.9486 87.6765 34.0667C85.3809 34.1846 83.0963 33.6755 81.0654 32.5933C79.0344 31.511 77.3329 29.8961 76.1416 27.9198C74.9503 25.9437 74.3135 23.6801 74.2991 21.3694V21.0962L69.5625 20.4506V20.8013C69.5625 20.9628 69.5625 21.1117 69.5625 21.2856C69.5639 24.4692 70.4255 27.5926 72.0554 30.3221C73.6854 33.0517 76.0224 35.2847 78.8167 36.7829C81.6111 38.281 84.7579 38.9877 87.9208 38.8277C91.0836 38.6677 94.1439 37.6468 96.7746 35.8742L97.0311 35.7004L94.363 31.7459Z" fill="#96B394"/>
</g>
</g>
</g>
</g>
<defs>
<clipPath id="clip0_692_10044">
<rect width="174.194" height="60" fill="white"/>
</clipPath>
</defs>
</svg>
