<svg width="93" height="32" viewBox="0 0 93 32" fill="none" xmlns="http://www.w3.org/2000/svg">
<g id="logo-2 1" clip-path="url(#clip0_695_7829)">
<g id="Clip path group">
<mask id="mask0_695_7829" style="mask-type:luminance" maskUnits="userSpaceOnUse" x="0" y="0" width="93" height="32">
<g id="clip0_1636_19">
<path id="Vector" d="M92.9032 0H0V31.828H92.9032V0Z" fill="white"/>
</g>
</mask>
<g mask="url(#mask0_695_7829)">
<g id="Group">
<path id="Vector_2" d="M83.259 2.2076C83.2363 1.87161 83.0959 1.55459 82.8632 1.3124C82.6304 1.07021 82.3197 0.918373 81.9868 0.883637C81.6534 0.848902 81.3184 0.933495 81.0412 1.12252C80.7641 1.31154 80.5617 1.59287 80.4709 1.91694C80.3795 2.24102 80.4048 2.58705 80.5426 2.89409C80.6805 3.20114 80.9215 3.4495 81.2234 3.59542C81.5254 3.74134 81.8686 3.77546 82.1932 3.69178C82.5179 3.6081 82.8028 3.41197 82.9974 3.13796L83.0763 3.02705L82.7832 2.8317L82.7094 2.93766C82.6128 3.07809 82.4833 3.19258 82.3326 3.27109C82.1819 3.3496 82.0146 3.38972 81.8448 3.38794C81.5687 3.3886 81.3034 3.28193 81.1042 3.09028C80.905 2.89863 80.7873 2.63688 80.7759 2.3599H83.2657L83.259 2.2076ZM80.7888 2.01556C80.8415 1.77399 80.9752 1.55791 81.1672 1.40359C81.3597 1.24926 81.5986 1.16607 81.8448 1.16797C82.0895 1.16563 82.3274 1.24889 82.5179 1.40351C82.7083 1.55814 82.8394 1.7745 82.889 2.01556H80.7888Z" fill="#96B394"/>
<path id="Vector_3" d="M84.8881 0.755763C84.8303 0.990591 84.8086 1.23285 84.8236 1.47423V1.51562H83.8507V1.4494C83.8393 1.2413 83.859 1.03267 83.908 0.830261C84.0102 0.49917 84.2373 0.343558 84.6197 0.343558H84.7513V0.00253483H84.6197C84.3839 -0.0141324 84.1495 0.0520413 83.957 0.189739C83.7645 0.327436 83.6257 0.528103 83.5642 0.757419C83.508 0.992526 83.4873 1.23461 83.5013 1.47589V3.70247H83.8507V1.85995H84.8236V3.70247H85.1746V1.85995H86.0737V1.51727H85.1746V1.45106C85.1632 1.24303 85.1818 1.03444 85.2303 0.831917C85.3325 0.500826 85.5601 0.345213 85.942 0.345213H86.0737V0.00253483H85.942C85.7067 -0.0141425 85.4729 0.0518555 85.2809 0.189246C85.0884 0.326637 84.9495 0.52689 84.8881 0.755763Z" fill="#96B394"/>
<path id="Vector_4" d="M88.9265 2.20759C88.9048 1.87264 88.766 1.55624 88.5348 1.314C88.3036 1.07177 87.9949 0.919214 87.6625 0.883162C87.3306 0.847116 86.9967 0.929877 86.7196 1.1169C86.4424 1.30392 86.2396 1.58322 86.1466 1.90571C86.0537 2.2282 86.0775 2.57322 86.2127 2.88011C86.3479 3.18701 86.5864 3.43613 86.8863 3.58367C87.1861 3.73122 87.5283 3.76775 87.8525 3.68683C88.1766 3.60591 88.462 3.41274 88.6581 3.14126L88.7355 3.03035L88.4326 2.83169L88.3588 2.93764C88.2617 3.07726 88.1322 3.19095 87.9815 3.26884C87.8308 3.34674 87.6635 3.38648 87.4943 3.38462C87.2186 3.38527 86.9534 3.27854 86.7541 3.08685C86.5554 2.89515 86.4383 2.63341 86.4269 2.35658H88.9265V2.20759ZM86.4563 2.01556C86.509 1.77621 86.6411 1.56196 86.831 1.40795C87.0204 1.25394 87.2568 1.16932 87.5005 1.16797C87.7456 1.16555 87.9841 1.24876 88.1745 1.40336C88.3655 1.55796 88.4966 1.77436 88.5461 2.01556H86.4563Z" fill="#96B394"/>
<path id="Vector_5" d="M90.4376 1.16798C90.6027 1.16662 90.7658 1.20443 90.914 1.27835C91.0616 1.35227 91.1901 1.46022 91.2887 1.59343L91.3645 1.69276L91.6562 1.49741L91.572 1.3865C91.4409 1.20892 91.2696 1.06536 91.0724 0.967752C90.8753 0.870141 90.6575 0.821305 90.4376 0.8253C90.2487 0.822312 90.0608 0.857883 89.8858 0.929873C89.7104 1.00186 89.5519 1.10878 89.4187 1.24416C89.2861 1.37954 89.1818 1.54058 89.1127 1.71755C89.0435 1.89452 89.011 2.08376 89.0162 2.27382C89.0136 2.46294 89.0487 2.6507 89.1189 2.82615C89.1891 3.00159 89.2933 3.16123 89.426 3.29574C89.5581 3.43025 89.7155 3.53695 89.8894 3.60962C90.0629 3.6823 90.2492 3.71949 90.4376 3.71903C90.6549 3.72109 90.8691 3.67218 91.0642 3.57619C91.2593 3.4802 91.4291 3.33978 91.5607 3.16611L91.6412 3.05685L91.3599 2.85488L91.2825 2.95752C91.1849 3.09065 91.0574 3.19893 90.9109 3.27368C90.7643 3.34842 90.6022 3.38756 90.4376 3.38794C90.1527 3.37686 89.8827 3.25525 89.6851 3.04861C89.4874 2.84197 89.3769 2.56636 89.3769 2.27961C89.3769 1.99287 89.4874 1.71726 89.6851 1.51062C89.8827 1.30398 90.1527 1.18237 90.4376 1.17129V1.16798Z" fill="#96B394"/>
<path id="Vector_6" d="M93.0427 1.19115V0.850123H92.1437V0.00253296H91.7927V2.18111C91.7798 2.44273 91.8015 2.70493 91.8567 2.96082C91.9589 3.29191 92.2242 3.70247 92.9106 3.70247H93.0427V3.35979H92.9106C92.7542 3.37419 92.5978 3.33351 92.4683 3.24472C92.3382 3.15594 92.2433 3.02456 92.1994 2.87309C92.1467 2.64029 92.1282 2.4011 92.1437 2.1629V1.19115H93.0427Z" fill="#96B394"/>
<path id="Vector_7" d="M29.0472 29.3785H28.726V30.0076H28.3506V30.3287H28.726V31.5322H29.0472V30.3287H29.4243V30.0076H29.0472V29.3785Z" fill="#96B394"/>
<path id="Vector_8" d="M30.1356 30.2062C30.0018 30.3639 29.9334 30.5671 29.9445 30.7741V31.5306H30.264V30.7691C30.256 30.6455 30.2928 30.5231 30.3678 30.4247C30.4067 30.3855 30.4537 30.3553 30.5055 30.3361C30.5572 30.317 30.6125 30.3094 30.6675 30.3138H30.7383V29.9827H30.6675C30.568 29.9794 30.469 29.9975 30.3773 30.0361C30.2854 30.0747 30.203 30.1327 30.1356 30.2062Z" fill="#96B394"/>
<path id="Vector_9" d="M31.9242 29.9894C31.7402 29.9842 31.5599 30.0426 31.4137 30.1549L31.3593 30.1979L31.5553 30.4512L31.6096 30.4082C31.7018 30.3442 31.8123 30.3122 31.9242 30.3172C32.0322 30.311 32.1392 30.3406 32.2288 30.4015C32.2835 30.4433 32.3238 30.5012 32.3441 30.5671H31.8352C31.7522 30.5671 31.6692 30.5716 31.5866 30.5803C31.51 30.5881 31.4357 30.6106 31.3676 30.6466C31.2972 30.6837 31.2398 30.7414 31.2029 30.8121C31.1603 30.8995 31.1404 30.9963 31.1452 31.0935C31.147 31.1385 31.1548 31.1831 31.1683 31.226C31.1908 31.2908 31.2307 31.3481 31.2836 31.3915C31.3542 31.4471 31.4347 31.4887 31.5207 31.514C31.7831 31.5781 32.057 31.5781 32.3194 31.514C32.4051 31.4891 32.4851 31.4474 32.5549 31.3915C32.6088 31.3491 32.649 31.2915 32.6701 31.226C32.6851 31.1833 32.6934 31.1387 32.6949 31.0935V30.7839C32.7043 30.6793 32.6906 30.5738 32.6549 30.475C32.6192 30.3763 32.5624 30.2866 32.4884 30.2123C32.4143 30.1381 32.325 30.0811 32.2266 30.0454C32.1283 30.0098 32.0233 29.9963 31.9192 30.0059L31.9242 29.9894ZM32.3787 30.8733V31.077C32.3791 31.0863 32.3772 31.0955 32.3732 31.1039C32.3691 31.1123 32.3631 31.1195 32.3556 31.125C32.3278 31.1492 32.2953 31.1672 32.2601 31.178C32.21 31.1955 32.1581 31.2072 32.1053 31.2127C31.9855 31.2276 31.8644 31.2276 31.7447 31.2127C31.6921 31.2069 31.6403 31.1958 31.5899 31.1796C31.5546 31.1673 31.5217 31.1488 31.4927 31.125C31.4857 31.1192 31.4802 31.1118 31.4764 31.1035C31.4728 31.0952 31.471 31.0861 31.4713 31.077C31.4695 31.0351 31.4739 30.9933 31.4845 30.9528C31.4874 30.944 31.4922 30.9359 31.4984 30.9291C31.5046 30.9223 31.5123 30.9168 31.5207 30.9131C31.563 30.8952 31.6082 30.8851 31.6541 30.8833C31.7216 30.8833 31.8188 30.8733 31.9242 30.8733H32.3787Z" fill="#96B394"/>
<path id="Vector_10" d="M33.9809 29.991C33.8853 29.9862 33.7898 30.0026 33.7012 30.0393C33.6127 30.0759 33.5333 30.1318 33.4688 30.2029C33.3422 30.3633 33.2784 30.5646 33.2893 30.7691V31.5306H33.6088V30.7691C33.6001 30.6459 33.6345 30.5236 33.7059 30.4231C33.7804 30.3528 33.8787 30.3137 33.9809 30.3137C34.0831 30.3137 34.1814 30.3528 34.2559 30.4231C34.3273 30.5236 34.3616 30.6459 34.3531 30.7691V31.5306H34.6742V30.7691C34.6852 30.5641 34.6201 30.3623 34.4914 30.2029C34.4271 30.1319 34.348 30.0761 34.2597 30.0395C34.1715 30.0028 34.0763 29.9863 33.9809 29.991Z" fill="#96B394"/>
<path id="Vector_11" d="M36.1578 30.1102C36.0345 30.0323 35.8918 29.991 35.7461 29.991C35.6005 29.991 35.4578 30.0323 35.3345 30.1102C35.281 30.1504 35.2382 30.203 35.2095 30.2636C35.1808 30.3242 35.1671 30.3908 35.1698 30.4579C35.1671 30.5344 35.1859 30.6101 35.2241 30.6764C35.2595 30.731 35.3069 30.7769 35.3624 30.8105C35.4177 30.8429 35.477 30.8679 35.5386 30.8849C35.5979 30.8999 35.6573 30.9147 35.7149 30.9263C35.7725 30.9379 35.8417 30.9561 35.8795 30.9677C35.9102 30.9758 35.9395 30.9881 35.9668 31.0041C35.9866 31.0157 35.9915 31.024 35.9931 31.0289C35.9971 31.0447 35.9971 31.0612 35.9931 31.077C35.9948 31.1013 35.989 31.1255 35.9767 31.1465C35.9617 31.1648 35.9432 31.1801 35.9223 31.1912C35.896 31.2047 35.8676 31.2136 35.8384 31.2177C35.7691 31.2293 35.6985 31.2293 35.6292 31.2177C35.5994 31.2136 35.5705 31.2047 35.5436 31.1912C35.5228 31.1815 35.505 31.1659 35.4926 31.1465C35.4802 31.1255 35.4745 31.1013 35.4761 31.077V31.0074H35.1467V31.077C35.1444 31.1439 35.1581 31.2105 35.1868 31.2711C35.2154 31.3316 35.2582 31.3843 35.3114 31.4246C35.4347 31.5025 35.5775 31.5438 35.7231 31.5438C35.8688 31.5438 36.0115 31.5025 36.1348 31.4246C36.1881 31.3844 36.2309 31.3317 36.2596 31.2711C36.2883 31.2106 36.3019 31.144 36.2995 31.077C36.3019 31.0015 36.2831 30.9269 36.2451 30.8618C36.2107 30.8059 36.1632 30.7593 36.1068 30.726C36.0518 30.6935 35.9925 30.6689 35.9306 30.6532L35.756 30.6135C35.7002 30.6022 35.6452 30.5872 35.5913 30.5688C35.5595 30.5596 35.5291 30.5463 35.5008 30.529C35.4893 30.529 35.481 30.5141 35.4794 30.5075C35.4765 30.4911 35.4765 30.4743 35.4794 30.4579C35.4775 30.4335 35.4833 30.4092 35.4959 30.3883C35.5083 30.3693 35.5261 30.3543 35.5469 30.3453C35.5737 30.3316 35.6027 30.3226 35.6325 30.3188C35.7017 30.3072 35.7724 30.3072 35.8417 30.3188C35.8714 30.3228 35.9004 30.3318 35.9273 30.3453C35.9479 30.3553 35.966 30.3701 35.98 30.3883C35.9923 30.4093 35.9981 30.4335 35.9965 30.4579V30.5274H36.3143V30.4579C36.3177 30.3915 36.3053 30.3254 36.2781 30.2649C36.2509 30.2044 36.2097 30.1514 36.1578 30.1102Z" fill="#96B394"/>
<path id="Vector_12" d="M37.1642 30.2145C37.1556 30.1529 37.1615 30.0902 37.1812 30.0313C37.2008 29.9724 37.2338 29.9189 37.2775 29.8749C37.3213 29.831 37.3745 29.7978 37.4332 29.7781C37.4917 29.7583 37.5541 29.7524 37.6154 29.7609H37.6862V29.4381H37.6154C37.5117 29.429 37.4074 29.4428 37.3096 29.4786C37.2118 29.5144 37.1231 29.5714 37.0496 29.6454C36.9761 29.7194 36.9197 29.8087 36.8843 29.9071C36.8489 30.0054 36.8353 30.1104 36.8447 30.2145V31.5388H37.1642V30.7277H37.6137L37.7109 30.4066H37.1642V30.2145Z" fill="#96B394"/>
<path id="Vector_13" d="M38.8638 29.9894C38.7023 30.004 38.5505 30.0736 38.4336 30.1866C38.3167 30.2997 38.2416 30.4494 38.2208 30.6112C38.1999 30.7729 38.2345 30.9369 38.3189 31.0762C38.4033 31.2155 38.5324 31.3217 38.685 31.3772C38.8375 31.4328 39.0043 31.4344 39.1578 31.3818C39.3114 31.3292 39.4425 31.2255 39.5296 31.0879C39.6166 30.9503 39.6544 30.7869 39.6367 30.6248C39.6189 30.4628 39.5467 30.3116 39.432 30.1963C39.356 30.1252 39.2665 30.0702 39.1689 30.0346C39.0712 29.9991 38.9675 29.9837 38.8638 29.9894ZM38.8638 31.2243C38.7747 31.2114 38.6925 31.1685 38.6306 31.1027C38.5686 31.037 38.5306 30.9521 38.5226 30.8619C38.5146 30.7717 38.5371 30.6815 38.5865 30.6057C38.6358 30.53 38.7092 30.4732 38.7946 30.4446C38.8801 30.4159 38.9727 30.4171 39.0574 30.4479C39.1421 30.4788 39.2139 30.5374 39.2614 30.6144C39.3088 30.6914 39.329 30.7822 39.3188 30.8722C39.3084 30.9621 39.2683 31.0459 39.2047 31.1101C39.1582 31.1508 39.1041 31.1818 39.0456 31.2014C38.9871 31.221 38.9253 31.2288 38.8638 31.2243Z" fill="#96B394"/>
<path id="Vector_14" d="M40.3592 30.2062C40.2255 30.3639 40.1571 30.5671 40.1682 30.7741V31.5306H40.4876V30.7691C40.4782 30.6453 40.5152 30.5224 40.5914 30.4247C40.6304 30.3855 40.6774 30.3553 40.7291 30.3361C40.7809 30.317 40.8361 30.3094 40.8911 30.3138H40.9619V29.9827H40.8911C40.7916 29.9794 40.6927 29.9975 40.6009 30.0361C40.5091 30.0747 40.4266 30.1327 40.3592 30.2062Z" fill="#96B394"/>
<path id="Vector_15" d="M43.0273 29.991C42.9176 29.9891 42.8094 30.0171 42.7144 30.0721C42.6566 30.1078 42.6058 30.1538 42.5645 30.2079C42.5238 30.1539 42.4736 30.1079 42.4163 30.0721C42.3218 30.0171 42.2142 29.9891 42.105 29.991C42.0164 29.9871 41.9282 30.0046 41.8476 30.042C41.7671 30.0795 41.6967 30.1358 41.6423 30.2062C41.5259 30.3698 41.4678 30.5682 41.4776 30.7691V31.5306H41.7971V30.7691C41.7973 30.7175 41.8012 30.6661 41.8086 30.6151C41.8162 30.5628 41.8318 30.512 41.8548 30.4645C41.8761 30.4205 41.9077 30.3825 41.9469 30.3535C41.9936 30.3274 42.046 30.3138 42.0993 30.3138C42.1526 30.3138 42.2051 30.3274 42.2516 30.3535C42.2903 30.3819 42.3214 30.4194 42.3422 30.4628C42.365 30.511 42.3805 30.5623 42.3883 30.6151C42.3949 30.6662 42.3988 30.7176 42.3998 30.7691V31.5306H42.7193V30.7691C42.7202 30.7175 42.7245 30.6661 42.7325 30.6151C42.7393 30.5626 42.7549 30.5117 42.7786 30.4645C42.7993 30.4201 42.8311 30.3819 42.8708 30.3535C42.9174 30.3274 42.9698 30.3138 43.0231 30.3138C43.0764 30.3138 43.1289 30.3274 43.1754 30.3535C43.2142 30.3825 43.2453 30.4206 43.266 30.4645C43.2903 30.5116 43.3064 30.5625 43.3138 30.6151C43.3204 30.6662 43.3243 30.7176 43.3253 30.7691V31.5306H43.6432V30.7691C43.6522 30.5683 43.5942 30.3702 43.4785 30.2062C43.4252 30.1374 43.3566 30.0821 43.2783 30.0447C43.2 30.0073 43.114 29.989 43.0273 29.991Z" fill="#96B394"/>
<path id="Vector_16" d="M44.6183 30.0175H44.2988V31.5339H44.6183V30.0175Z" fill="#96B394"/>
<path id="Vector_17" d="M44.6183 29.3785H44.2988V29.7626H44.6183V29.3785Z" fill="#96B394"/>
<path id="Vector_18" d="M45.9648 29.991C45.8686 29.9858 45.7725 30.0025 45.6835 30.0397C45.5946 30.077 45.5151 30.1339 45.451 30.2062C45.323 30.3658 45.2584 30.5676 45.2699 30.7724V31.5306H45.5893V30.7691C45.5808 30.6459 45.6151 30.5236 45.6865 30.4231C45.761 30.3528 45.8593 30.3136 45.9615 30.3136C46.0637 30.3136 46.162 30.3528 46.2366 30.4231C46.3079 30.5236 46.3423 30.6459 46.3337 30.7691V31.5306H46.6548V30.7691C46.6658 30.5641 46.6007 30.3623 46.472 30.2029C46.4081 30.1323 46.3296 30.0768 46.2419 30.0402C46.1542 30.0036 46.0596 29.9868 45.9648 29.991Z" fill="#96B394"/>
<path id="Vector_19" d="M47.9219 29.9894C47.816 29.9824 47.7098 29.9974 47.6099 30.0333C47.51 30.0693 47.4185 30.1255 47.341 30.1984C47.2636 30.2713 47.2019 30.3595 47.1597 30.4573C47.1175 30.5552 47.0957 30.6607 47.0957 30.7674C47.0957 30.8741 47.1175 30.9796 47.1597 31.0775C47.2019 31.1754 47.2636 31.2635 47.341 31.3365C47.4185 31.4094 47.51 31.4655 47.6099 31.5015C47.7098 31.5374 47.816 31.5524 47.9219 31.5455C48.0767 31.5506 48.2299 31.5128 48.3649 31.4362C48.3559 31.5225 48.3188 31.6034 48.2595 31.6663C48.2134 31.7066 48.1599 31.7373 48.1019 31.7566C48.0439 31.776 47.9827 31.7835 47.9219 31.7789H47.8511V32.1017H47.9219C48.0253 32.1073 48.1288 32.0919 48.2261 32.0564C48.3235 32.0208 48.4127 31.9658 48.4884 31.8948C48.5598 31.8191 48.615 31.7295 48.6506 31.6316C48.6864 31.5337 48.7017 31.4294 48.6959 31.3253V30.7674C48.7052 30.6629 48.6916 30.5576 48.656 30.4589C48.6204 30.3602 48.5637 30.2706 48.4899 30.1964C48.416 30.1222 48.3269 30.0652 48.2288 30.0294C48.1306 29.9936 48.0258 29.98 47.9219 29.9894ZM48.3764 30.7658V30.832C48.3762 30.8869 48.3648 30.9413 48.343 30.9916C48.3212 31.042 48.2894 31.0874 48.2496 31.125C48.156 31.1983 48.0385 31.2338 47.9202 31.2243C47.8482 31.2183 47.7785 31.1952 47.7171 31.1568C47.6558 31.1185 47.6042 31.066 47.567 31.0037C47.5297 30.9415 47.5077 30.8712 47.5028 30.7986C47.4978 30.7261 47.5101 30.6535 47.5386 30.5867C47.5671 30.5199 47.611 30.4608 47.6666 30.4144C47.7222 30.368 47.788 30.3356 47.8586 30.3197C47.9292 30.3039 48.0024 30.3052 48.0724 30.3234C48.1424 30.3417 48.2071 30.3764 48.2611 30.4247C48.3438 30.5183 48.3863 30.6408 48.3797 30.7658H48.3764Z" fill="#96B394"/>
<path id="Vector_20" d="M51.1305 30.2145C51.1216 30.1529 51.1272 30.09 51.1468 30.031C51.1663 29.9719 51.1993 29.9182 51.2431 29.8742C51.2869 29.8301 51.3403 29.797 51.3991 29.7773C51.4579 29.7577 51.5204 29.752 51.5817 29.7609H51.6523V29.4381H51.5817C51.478 29.429 51.3736 29.4428 51.2758 29.4786C51.178 29.5144 51.0891 29.5713 51.0155 29.6453C50.9419 29.7193 50.8853 29.8086 50.8496 29.9069C50.814 30.0053 50.8003 30.1102 50.8093 30.2145V31.5388H51.1305V30.7277H51.58L51.6756 30.4065H51.1305V30.2145Z" fill="#96B394"/>
<path id="Vector_21" d="M53.0925 30.7674C53.0925 30.8195 53.0884 30.8715 53.0812 30.923C53.0734 30.975 53.0574 31.0253 53.0332 31.072C53.0094 31.1164 52.9759 31.1544 52.9346 31.1829C52.8835 31.2093 52.8272 31.2231 52.7699 31.2231C52.7127 31.2231 52.6559 31.2093 52.6053 31.1829C52.563 31.1558 52.5289 31.1181 52.5062 31.0737C52.4825 31.027 52.4659 30.9767 52.4587 30.9247C52.451 30.8732 52.4468 30.8212 52.4468 30.7691V30.0191H52.1207V30.7691C52.1088 30.9713 52.1671 31.1714 52.2858 31.3352C52.3462 31.4019 52.4205 31.4552 52.5026 31.4916C52.5852 31.5281 52.6739 31.5468 52.7637 31.5468C52.8541 31.5468 52.9428 31.5281 53.0254 31.4916C53.1075 31.4552 53.1818 31.4019 53.2422 31.3352C53.3614 31.1717 53.4197 30.9714 53.4068 30.7691V30.0191H53.0776L53.0925 30.7674Z" fill="#96B394"/>
<path id="Vector_22" d="M54.1473 30.2062C54.0136 30.3639 53.9449 30.5672 53.9563 30.774V31.5306H54.2758V30.7691C54.2665 30.6453 54.3031 30.5225 54.3795 30.4248C54.4182 30.3856 54.4652 30.3553 54.5173 30.3362C54.5689 30.317 54.6242 30.3094 54.6794 30.3139H54.7501V29.9828H54.6727C54.5741 29.9803 54.4766 29.999 54.3857 30.0375C54.2954 30.076 54.2138 30.1336 54.1473 30.2062Z" fill="#96B394"/>
<path id="Vector_23" d="M55.9625 29.991C55.8671 29.986 55.7716 30.0025 55.6828 30.0391C55.5945 30.0758 55.5151 30.1317 55.4505 30.2029C55.3231 30.3628 55.2591 30.5645 55.2709 30.7691V31.5306H55.5904V30.7691C55.5822 30.6459 55.6162 30.5236 55.6874 30.4231C55.7623 30.3528 55.8604 30.3137 55.9625 30.3137C56.0647 30.3137 56.1633 30.3528 56.2376 30.4231C56.3089 30.5236 56.3434 30.6459 56.3347 30.7691V31.5306H56.6495V30.7691C56.6609 30.5643 56.5963 30.3625 56.4683 30.2029C56.4043 30.1326 56.3264 30.0772 56.2387 30.0405C56.1514 30.0039 56.057 29.987 55.9625 29.991Z" fill="#96B394"/>
<path id="Vector_24" d="M57.6261 30.0175H57.3066V31.5339H57.6261V30.0175Z" fill="#96B394"/>
<path id="Vector_25" d="M57.6261 29.3785H57.3066V29.7626H57.6261V29.3785Z" fill="#96B394"/>
<path id="Vector_26" d="M58.8764 29.3785H58.5553V30.0076H58.1816V30.3287H58.5553V31.5322H58.8764V30.3287H59.2536V30.0076H58.8764V29.3785Z" fill="#96B394"/>
<path id="Vector_27" d="M60.7036 30.7674C60.7036 30.8195 60.7 30.8715 60.6922 30.923C60.6845 30.975 60.6685 31.0253 60.6442 31.072C60.6205 31.1164 60.5869 31.1544 60.5456 31.1829C60.4945 31.2093 60.4383 31.2231 60.381 31.2231C60.3237 31.2231 60.2669 31.2093 60.2163 31.1829C60.1745 31.1558 60.1405 31.1181 60.1173 31.0737C60.0935 31.027 60.0775 30.9767 60.0698 30.9247C60.062 30.8732 60.0584 30.8212 60.0579 30.7691V30.0191H59.7369V30.7691C59.725 30.9713 59.7833 31.1714 59.9015 31.3352C59.9624 31.4019 60.0362 31.4552 60.1188 31.4916C60.2009 31.5281 60.2902 31.5468 60.38 31.5468C60.4703 31.5468 60.5591 31.5281 60.6416 31.4916C60.7237 31.4552 60.7975 31.4019 60.8584 31.3352C60.9776 31.1717 61.036 30.9714 61.0231 30.7691V30.0191H60.702L60.7036 30.7674Z" fill="#96B394"/>
<path id="Vector_28" d="M61.7547 30.2062C61.621 30.3639 61.5524 30.5671 61.5637 30.7741V31.5306H61.8832V30.7691C61.8734 30.6453 61.9106 30.5224 61.9869 30.4247C62.0256 30.3855 62.0726 30.3553 62.1242 30.3361C62.1764 30.317 62.2316 30.3094 62.2863 30.3138H62.3555V29.9827H62.2863C62.1872 29.9794 62.0881 29.9975 61.9962 30.0361C61.9044 30.0747 61.8218 30.1327 61.7547 30.2062Z" fill="#96B394"/>
<path id="Vector_29" d="M64.1271 30.1963C64.0182 30.0785 63.8762 29.9972 63.7204 29.9635C63.5645 29.9298 63.4019 29.9453 63.2548 30.008C63.1077 30.0706 62.9833 30.1773 62.8992 30.3135C62.8146 30.4498 62.7743 30.6088 62.7831 30.7691C62.7738 30.8733 62.7877 30.9783 62.8233 31.0766C62.8589 31.175 62.9157 31.2643 62.989 31.3383C63.0628 31.4122 63.1516 31.4692 63.2497 31.5049C63.3472 31.5407 63.4515 31.5546 63.5552 31.5455C63.6569 31.5505 63.758 31.5353 63.8535 31.501C63.949 31.4666 64.0368 31.4137 64.1121 31.3452L64.1632 31.2955L63.9392 31.0654L63.8897 31.115C63.7978 31.1927 63.6801 31.2318 63.5604 31.2243C63.4468 31.2317 63.3338 31.1983 63.2424 31.13C63.1836 31.0782 63.1428 31.0085 63.1273 30.9313H64.1761C64.2179 30.9307 64.2582 30.9142 64.2881 30.885C64.3036 30.8696 64.316 30.8514 64.3248 30.8312C64.333 30.811 64.3377 30.7893 64.3377 30.7674C64.3423 30.6629 64.3263 30.5585 64.2902 30.4603C64.254 30.3622 64.1983 30.2724 64.1271 30.1963ZM63.1206 30.6085C63.1361 30.5303 63.1764 30.4593 63.2357 30.4066C63.3286 30.3379 63.4422 30.304 63.5573 30.3105C63.6718 30.304 63.7854 30.3379 63.8783 30.4066C63.9387 30.4589 63.9805 30.5299 63.9965 30.6085H63.1206Z" fill="#96B394"/>
<path id="Vector_30" d="M30.37 4.5368L22.0175 24.1026L15.9887 10.0097H13.8857L18.3485 20.5135H18.3337L21.1052 27.0162C21.1761 27.2009 21.3015 27.3593 21.4646 27.4703C21.6277 27.5813 21.8206 27.6394 22.0175 27.637C22.2202 27.647 22.4205 27.5895 22.5872 27.4733C22.754 27.3572 22.8779 27.1889 22.9397 26.9946L32.5454 4.5368H30.37Z" fill="#AF4B85"/>
<path id="Vector_31" d="M10.485 24.1009L2.30549 4.86293L2.16716 4.53185H0L9.57104 27.0311C9.64155 27.216 9.76686 27.3748 9.93001 27.4858C10.0932 27.5968 10.2863 27.6548 10.4834 27.6519C10.6746 27.6518 10.8622 27.5989 11.0257 27.4991C11.1892 27.3993 11.3223 27.2563 11.4105 27.0857L11.427 27.0542L15.8437 16.6944L15.8601 16.658L14.765 14.1185L10.485 24.1009Z" fill="#AF4B85"/>
<path id="Vector_32" d="M90.5861 4.44246L82.2945 23.8642L76.3265 9.92201H74.0215L78.5036 20.4739H78.4891L81.2886 27.0608C81.366 27.263 81.5028 27.4364 81.6814 27.5577C81.8599 27.6791 82.071 27.7426 82.2863 27.7396C82.5072 27.749 82.7255 27.6857 82.9072 27.5593C83.0888 27.433 83.2251 27.2504 83.2943 27.0393L92.9639 4.44246H90.5861Z" fill="#AF4B85"/>
<path id="Vector_33" d="M70.7628 24.1009L62.5899 4.86293L62.4516 4.53185H60.2725L69.8436 27.0261C69.9143 27.211 70.0397 27.3698 70.2028 27.4808C70.3659 27.5918 70.5589 27.6498 70.7561 27.6469C70.947 27.6468 71.1349 27.594 71.2985 27.4941C71.4616 27.3943 71.5948 27.2513 71.683 27.0807L71.6996 27.0493L76.0536 16.8368L76.0701 16.7987L74.9749 14.2609L70.7628 24.1009Z" fill="#AF4B85"/>
<path id="Vector_34" d="M56.7379 6.97032C55.8966 4.97548 54.501 3.26673 52.7188 2.04869C50.9361 0.830658 48.842 0.154977 46.6873 0.102572C44.5326 0.0501666 42.4085 0.623257 40.5694 1.75321C38.7304 2.88316 37.2543 4.52207 36.318 6.4737L36.1533 6.82957L37.5465 7.01171L37.6387 6.82957C38.2422 5.64944 39.0753 4.60313 40.0885 3.75266C41.1018 2.90218 42.2746 2.26488 43.5374 1.87851C44.8002 1.49216 46.1274 1.3646 47.4401 1.50342C48.7529 1.64224 50.0246 2.0446 51.1798 2.68666C52.3348 3.32872 53.35 4.19739 54.1655 5.24118C54.9805 6.285 55.5787 7.48268 55.9245 8.76325C56.2708 10.0438 56.3575 11.3812 56.18 12.696C56.0019 14.0109 55.5637 15.2766 54.8901 16.418L54.7983 16.5736L55.6215 17.8036L55.8569 17.4361C56.0215 17.1861 56.1681 16.9278 56.3049 16.6696C57.0914 15.1877 57.5394 13.548 57.6153 11.8701C57.6917 10.1922 57.3949 8.51824 56.7461 6.97032H56.7379Z" fill="#AF4B85"/>
<path id="Vector_35" d="M40.9375 22.2799C40.7036 22.164 40.4737 22.0399 40.2475 21.9075L37.7773 27.675H38.627L40.9375 22.2799Z" fill="#96B394"/>
<path id="Vector_36" d="M51.4871 27.675H52.3354L50.3014 22.9123C50.0544 22.9967 49.8074 23.0779 49.5488 23.1407L51.4871 27.675Z" fill="#96B394"/>
<path id="Vector_37" d="M51.9773 19.4872L51.8787 19.5534C50.4011 20.5495 48.682 21.1231 46.9052 21.2131C45.1284 21.3031 43.3607 20.906 41.791 20.0642C40.2213 19.2224 38.9087 17.9677 37.9935 16.4341C37.0783 14.9005 36.5949 13.1457 36.5949 11.3573C36.5949 11.2381 36.5949 11.1205 36.5949 11.0013V10.8937L35.1704 10.7001V10.8308C35.1622 11.0063 35.1572 11.1818 35.1572 11.3573C35.1546 12.8423 35.4442 14.3132 36.0095 15.6852C36.5747 17.0572 37.4044 18.3032 38.4508 19.3514C39.4857 20.4017 40.7215 21.2303 42.0838 21.7871C43.4461 22.3439 44.9064 22.6174 46.3768 22.5911C47.3364 22.5913 48.2923 22.4712 49.2224 22.2335C49.476 22.1673 49.7329 22.0912 49.9848 22.0084C50.9244 21.6944 51.8193 21.2592 52.6477 20.7139L52.7484 20.6476L51.9773 19.4872Z" fill="#96B394"/>
<path id="Vector_38" d="M50.3266 16.9312L50.1882 17.0255C49.1693 17.7108 47.9848 18.1059 46.7604 18.1689C45.5361 18.2318 44.3176 17.9603 43.2345 17.3831C42.1513 16.8059 41.2438 15.9446 40.6085 14.8906C39.9731 13.8366 39.6335 12.6294 39.6258 11.397V11.2513L37.0996 10.907V11.094C37.0996 11.1801 37.0996 11.2596 37.0996 11.3523C37.1003 13.0502 37.5599 14.716 38.4292 16.1718C39.2985 17.6276 40.5449 18.8185 42.0352 19.6176C43.5255 20.4165 45.2038 20.7934 46.8907 20.7081C48.5775 20.6228 50.2097 20.0783 51.6127 19.1329L51.7495 19.0402L50.3266 16.9312Z" fill="#96B394"/>
</g>
</g>
</g>
</g>
<defs>
<clipPath id="clip0_695_7829">
<rect width="92.9032" height="32" fill="white"/>
</clipPath>
</defs>
</svg>
