<svg width="18" height="18" viewBox="0 0 18 18" fill="none" xmlns="http://www.w3.org/2000/svg">
<g id="icn settings icn-xs" clip-path="url(#clip0_692_2427)">
<path id="Vector" d="M9.61987 2.2489H9.72C10.6448 2.25228 15.3304 2.28603 16.5938 2.62578C16.9757 2.72947 17.3237 2.93158 17.6031 3.21191C17.8824 3.49224 18.0833 3.84098 18.1856 4.22328C18.2992 4.65078 18.3791 5.21665 18.4331 5.80053L18.4444 5.91753L18.4691 6.21003L18.4781 6.32703C18.5513 7.35528 18.5602 8.31828 18.5614 8.52865V8.61303C18.5602 8.83128 18.5501 9.85953 18.4691 10.9305L18.4601 11.0487L18.45 11.1657C18.3937 11.8092 18.3105 12.4482 18.1856 12.9184C18.0836 13.3008 17.8828 13.6498 17.6034 13.9301C17.324 14.2105 16.9758 14.4125 16.5938 14.5159C15.2887 14.8669 10.3286 14.8917 9.64125 14.8928H9.4815C9.13387 14.8928 7.69613 14.886 6.18862 14.8343L5.99738 14.8275L5.8995 14.823L5.70712 14.8152L5.51475 14.8073C4.266 14.7522 3.07687 14.6633 2.529 14.5148C2.14705 14.4115 1.79895 14.2097 1.51956 13.9295C1.24018 13.6493 1.03933 13.3006 0.937125 12.9184C0.81225 12.4493 0.729 11.8092 0.67275 11.1657L0.66375 11.0475L0.65475 10.9305C0.599229 10.1682 0.568462 9.40432 0.5625 8.64003L0.5625 8.50165C0.56475 8.25978 0.57375 7.4239 0.6345 6.5014L0.642375 6.38553L0.64575 6.32703L0.65475 6.21003L0.6795 5.91753L0.69075 5.80053C0.74475 5.21665 0.824625 4.64965 0.93825 4.22328C1.04028 3.84083 1.24106 3.49193 1.52045 3.21154C1.79985 2.93116 2.14804 2.72916 2.53012 2.62578C3.078 2.47953 4.26712 2.38953 5.51587 2.33328L5.70712 2.3254L5.90062 2.31865L5.99738 2.31528L6.18975 2.3074C7.26042 2.27295 8.33153 2.25382 9.40275 2.25003H9.61987V2.2489ZM7.7625 5.86015V11.2804L12.4391 8.5714L7.7625 5.86015Z" fill="white"/>
</g>
<defs>
<clipPath id="clip0_692_2427">
<rect width="18" height="18" fill="white"/>
</clipPath>
</defs>
</svg>
