<svg width="127" height="48" viewBox="0 0 127 48" fill="none" xmlns="http://www.w3.org/2000/svg">
<g id="logo-32">
<path id="Vector" d="M26.0137 24.3407C26.0137 22.5884 27.0599 21.3677 28.6588 21.3677C30.2577 21.3677 31.3039 22.5884 31.3039 24.3407C31.3039 26.0734 30.2577 27.3138 28.6588 27.3138C27.0599 27.3138 26.0137 26.0734 26.0137 24.3407Z" fill="white"/>
<path id="Vector_2" d="M39.5356 21.2891C38.0157 21.2891 36.9893 22.4704 36.9893 24.0849C36.9893 25.7191 38.0354 26.9398 39.5356 26.9398C41.1937 26.9398 42.2992 25.6994 42.2992 24.0849C42.2992 22.4901 41.1937 21.2891 39.5356 21.2891Z" fill="white"/>
<path id="Vector_3" d="M48.3477 24.3407C48.3477 22.5884 49.3939 21.3677 50.9928 21.3677C52.5917 21.3677 53.6378 22.5884 53.6378 24.3407C53.6378 26.0734 52.5917 27.3138 50.9928 27.3138C49.3939 27.3138 48.3477 26.0734 48.3477 24.3407Z" fill="white"/>
<path id="Vector_4" d="M64.4336 24.3603C64.4336 22.6079 65.4995 21.3872 67.1773 21.3872C68.8552 21.3872 69.8619 22.6276 69.8619 24.3603C69.8619 26.0929 68.8552 27.3136 67.1773 27.3136C65.4995 27.3136 64.4336 26.1126 64.4336 24.3603Z" fill="white"/>
<path id="Vector_5" fill-rule="evenodd" clip-rule="evenodd" d="M63.428 44.9393C96.9673 44.9393 124.156 35.4231 124.156 23.6842C124.156 11.9454 96.9673 2.4292 63.428 2.4292C29.8884 2.4292 2.69922 11.9454 2.69922 23.6842C2.69922 35.4231 29.8884 44.9393 63.428 44.9393ZM22.1115 29.2237V14.5749H19.7032V29.2237H22.1115ZM23.5854 24.3407C23.5854 27.3335 25.5989 29.46 28.6585 29.46C31.7181 29.46 33.7315 27.3335 33.7315 24.3407C33.7315 21.348 31.7181 19.2216 28.6585 19.2216C25.5989 19.2216 23.5854 21.348 23.5854 24.3407ZM39.1211 29.0268C36.3773 29.0268 34.5415 26.9791 34.5415 24.1439C34.5415 21.289 36.4168 19.1822 39.2 19.1822C40.641 19.1822 41.8648 19.7926 42.457 20.8165L42.5952 19.4972H44.7271V28.7315C44.7271 31.9408 42.7137 34.0081 39.5554 34.0081C36.8707 34.0081 34.9165 32.3543 34.6008 29.8143H37.0287C37.1668 31.0942 38.1933 31.8227 39.6935 31.8227C41.3714 31.8227 42.3781 30.7594 42.3781 29.1646V27.5108C41.7661 28.4558 40.5423 29.0268 39.1211 29.0268ZM45.9188 24.3407C45.9188 27.3335 47.9323 29.46 50.9919 29.46C54.0515 29.46 56.0649 27.3335 56.0649 24.3407C56.0649 21.348 54.0515 19.2216 50.9919 19.2216C47.9323 19.2216 45.9188 21.348 45.9188 24.3407ZM60.1122 16.0714C60.1122 16.8786 59.4608 17.5087 58.6712 17.5087C57.8619 17.5087 57.2499 16.8786 57.2499 16.0714C57.2499 15.2837 57.8619 14.6537 58.6712 14.6537C59.4608 14.6537 60.1122 15.2837 60.1122 16.0714ZM59.8753 19.4972V29.2237H57.4671V19.4972H59.8753ZM61.9851 33.7325H64.3341V27.8848C64.946 28.889 66.2685 29.4796 67.7293 29.4796C70.6113 29.4796 72.3286 27.2745 72.2891 24.2423C72.2299 21.1905 70.4731 19.2019 67.7095 19.2019C66.2291 19.2019 64.8868 19.8517 64.2946 20.9739L64.1565 19.4972H61.9851V33.7325ZM76.809 29.4796C74.4797 29.4796 72.9795 28.2392 72.9006 26.3097H75.0917C75.0917 27.1563 75.7036 27.6485 76.7695 27.6485C77.6579 27.6485 78.3882 27.2942 78.3882 26.5263C78.3882 25.9749 77.9933 25.6796 77.3617 25.5024L75.6642 25.0693C73.7889 24.577 73.0585 23.5335 73.0585 22.2734C73.0585 20.4226 74.6179 19.2019 76.7103 19.2019C78.8224 19.2019 80.2634 20.4226 80.3424 22.3522H78.1513C78.1513 21.5055 77.5591 20.9936 76.6511 20.9936C75.7826 20.9936 75.2496 21.4661 75.2496 22.1356C75.2496 22.7657 75.7431 23.0216 76.4734 23.2185L78.1908 23.6319C79.7897 24.0257 80.6582 24.9708 80.6582 26.3688C80.6582 28.2589 79.0988 29.4796 76.809 29.4796ZM85.6536 29.4796C86.9757 29.4796 88.2389 28.8692 88.8115 27.9636L88.9698 29.2237H91.22V19.4972H88.8115V24.5967C88.8115 26.3491 88.1404 27.3335 86.5614 27.3335C85.3379 27.3335 84.489 26.7428 84.489 24.7346V19.4972H82.0805V25.5812C82.0805 27.9045 83.3438 29.4796 85.6536 29.4796ZM95.7538 23.6319V29.2237H93.3454V19.4972H95.556L95.6747 20.5999C96.2473 19.7335 97.2738 19.2019 98.4183 19.2019C100.037 19.2019 101.103 19.9107 101.636 21.0527C102.11 19.9107 103.275 19.2019 104.755 19.2019C107.124 19.2019 108.367 20.6196 108.367 22.8641V29.2237H106.038V23.4154C106.038 22.0372 105.288 21.3087 104.124 21.3087C102.978 21.3087 102.07 22.0569 102.07 23.6516V29.2237H99.721V23.4154C99.721 22.0372 98.9715 21.3087 97.8263 21.3087C96.6818 21.3087 95.7538 22.0569 95.7538 23.6319Z" fill="white"/>
</g>
</svg>
